/* XPM */
static char *dummy[]={
"15 15 4 1",
"a c #00aa00",
"# c #ff0000",
"b c #ffff7f",
". c #ffffff",
"...............",
"...............",
"......########.",
".....#.........",
"....##..aaaaaaa",
"....#..aa......",
"...##..a..bbbbb",
"...#..a.bb.....",
"..##..a.b......",
"..#..a..b......",
"..#..a.b.......",
"..#..a.b.......",
".#..a..b.......",
".#..a..b.......",
".......b......."};
