/* XPM */
static char *dummy[]={
"20 14 8 1",
"a c #04bef4",
". c #0706f2",
"d c #5c862c",
"c c #642e94",
"f c #f30204",
"b c #f46624",
"e c #fcf204",
"# c #ffffff",
"......########......",
"..aaa..######..aaa..",
"#.bbaa.#c##c#.aabb.#",
"#dbbba..#cc#..abbbd#",
"#dbbbaa.#bb#.aabbbd#",
"#dbbbea.#bb#.aebbbd#",
"#dbbeee.#ff#.eeebbd#",
"#dbeeee.#cc#.eeeebd#",
"#dbefeeeddddeeefebd#",
"#ddfffddcddcddfffdd#",
"##fffffccddccfffff##",
"####acccceecccca####",
"####acccaeeaccca####",
"####aaaaa##aaaaa####"};
