/* XPM */
static char *dummy[]={
"19 15 4 1",
"a c #043274",
"b c #04a654",
"# c #04aeec",
". c #ffffff",
"......#####........",
".a...#######.......",
".aa......####......",
"..aa....aaaaaa.....",
"..aaa..aaaaaa#aa...",
"...aa.aaaaaa#aaaa..",
"...aaabbabba#aaaaa.",
"...aaabbbbba#aaabaa",
"...aaaabbbaa#aaaaaa",
"...aaaaabaaa#aaaaa.",
"...aa.aaaaaa#aaaa..",
"..aaa..aaaaaa#a....",
".aaa....aaaaaa.....",
".aa......###.......",
"aa......###........"};
