/* XPM */
static char *dummy[]={
"15 15 5 1",
"c c #005500",
"# c #8a0045",
"a c #f5007a",
"b c #ffff00",
". c #ffffff",
"...............",
"....##.........",
"...#aa#.##.....",
"..#aaaa#aa#....",
"..#aaabb#aa....",
"...###bba##....",
"...#aa#aaaa#...",
"..#aaaa#aa#....",
"...#aaac##.....",
"....###c...c...",
"cccc..cc.ccc...",
".cccc.c.ccc....",
"...cccc.c......",
".....cccc......",
"......cc......."};
