/* XPM */
static char *dummy[]={
"18 13 5 1",
"# c #000000",
"b c #7c3204",
"c c #f06c7a",
"a c #f46624",
". c #ffffff",
"...#..............",
"...#..............",
"..#a#.............",
"##aab#............",
"c#aab#######......",
"..#aab########....",
"...#aabbb####b#...",
"....#aaaabbb#ba#..",
"....#a##aaabb#aa#.",
"....##.####bb##ba#",
"....b#.....##b##b#",
"....ba.......##.##",
"...bb.......##...."};
