/* XPM */
static char *dummy[]={
"15 20 6 1",
"d c #5c862c",
"c c #7c4a04",
"# c #eb1e24",
"a c #f4961c",
"b c #fbf104",
". c #ffffff",
"...###aabb#....",
"..###a##abb##..",
".a##..a##aab##.",
".a#a.##.##aab#.",
"baa#a#..##.abb#",
"bba#aa#a#.aab##",
"#ba###aa..abbb#",
"#ba.####aabbb#.",
"##b..##aabbb#.c",
".#bbaaabbb##ddc",
"..##bbbbd..ddcc",
"...###b.dc.dccd",
"cccd...cd.ddcdd",
".cccd...d.dcdd.",
".ddccd.ddddd...",
"...dddddd......",
".......d.......",
"......ddc......",
".....ccc.......",
"...cccc........"};
