/* XPM */
static char *dummy[]={
"12 13 5 1",
"a c #000000",
". c #6ccef4",
"c c #f30305",
"b c #f4961c",
"# c #ffffff",
"..#.........",
".........#..",
"#...####....",
"...a#a###..#",
"...######...",
"..bbb####...",
"...######.#.",
".#.cccccc...",
"...c#c###...",
"..c#ac####..",
"..########..",
"..##a#####..",
"..########.."};
