/* XPM */
static char *dummy[]={
"20 20 6 1",
"b c #000000",
"a c #8cc63c",
"# c #c2dc9c",
"d c #ec125c",
"c c #f49a9c",
". c #ffffff",
".........#..........",
".........#..........",
".........#..........",
".....####aaaaa......",
"....#aabaaabaaa.....",
"..cb#abbaaabbaabd...",
".cddbbdbaaabdbbddd..",
".cdcddddbbbddddddd..",
"cdc.cdddddddddcdddd.",
"cddcdddddcdddc.cddd.",
"cdddddddc.cdddcdddd.",
"cddddddddcddddddcdd.",
".cdddcdddddcdddc.c..",
".cddc.cdddc.cdddcd..",
"..cddcdddddcddddd...",
"..cdddddddddddddd...",
"...cddddcddddddd....",
"....cddc.cddddd.....",
".....ccdcddddd......",
".......ddddd........"};
