/* XPM */
static char *dummy[]={
"16 21 5 1",
"c c #1c7a34",
"a c #448ecc",
"b c #fcc68c",
"# c #fcf204",
". c #ffffff",
"...###..........",
".##.##......aaaa",
"####.#.....aaaa.",
".#b##....aaaa...",
"abab#..aaaa.....",
".bbb.aaa........",
"...bbbbb........",
"...bbcaabaaa....",
"...bccc..baaaa..",
"...b.cccc..aaaa.",
"...b..cccc.....a",
"..b...cccc......",
".b#..cbcbc.#....",
".#.#..bbbb....#.",
"..#....bbb...###",
"........bbbb..#.",
".........bbbb...",
".......#...bbb..",
"......###....bbc",
".......#......cc",
"..............c."};
